{"title":"TT Closer To The Edge 2011 DVDRiP AC3 5.1 XViD - U.S.M ","uid":6847347,"size":1493372605,"categoryP":"video","categoryS":"movies","magnet":"?xt=urn:btih:c6bbac25fa5ccf874b42fcfbd775c78953585ca3&amp;dn=TT+Closer+To+The+Edge+2011+DVDRiP+AC3+5.1+XViD+-+U.S.M+&amp;tr=udp%3A%2F%2Ftracker.openbittorrent.com%3A80&amp;tr=udp%3A%2F%2Fopen.demonii.com%3A1337&amp;tr=udp%3A%2F%2Ftracker.coppersurfer.tk%3A6969&amp;tr=udp%3A%2F%2Fexodus.desync.com%3A6969","seeders":1,"leechers":0,"uploader":"HeroMaster","files":-1,"time":1322355325,"description":"TT Closer To The Edge 2011 DVDRiP AC3 5.1 XViD - U.S.M\n\n\nSOURCES:\n\nTT  CLOSER TO THE EDGE 2011 PAL DVDR Legend-Rg\n\n\nIMDB:\n\nwww.imdb.com/title/tt1698010/\n\n\nVideo\nID                               : 0\nFormat                           : MPEG-4 Visual\nFormat profile                   : Advanced Simple@L5\nFormat settings, BVOP            : 2\nFormat settings, QPel            : No\nFormat settings, GMC             : No warppoints\nFormat settings, Matrix          : Default (MPEG)\nMuxing mode                      : Packed bitstream\nCodec ID                         : XVID\nCodec ID/Hint                    : XviD\nDuration                         : 1h 39mn\nBit rate                         : 1 522 Kbps\nWidth                            : 720 pixels\nHeight                           : 384 pixels\nDisplay aspect ratio             : 1.875\nFrame rate                       : 25.000 fps\nColor space                      : YUV\nChroma subsampling               : 4:2:0\nBit depth                        : 8 bits\nScan type                        : Progressive\nCompression mode                 : Lossy\nBits/(Pixel*Frame)               : 0.220\nStream size                      : 1.06 GiB (77%)\nWriting library                  : XviD 64\n\nAudio\nID                               : 1\nFormat                           : AC-3\nFormat/Info                      : Audio Coding 3\nMode extension                   : CM (complete main)\nCodec ID                         : 2000\nDuration                         : 1h 39mn\nBit rate mode                    : Constant\nBit rate                         : 448 Kbps\nChannel(s)                       : 6 channels\nChannel positions                : Front: L C R, Side: L R, LFE\nSampling rate                    : 48.0 KHz\nBit depth                        : 16 bits\nCompression mode                 : Lossy\nStream size                      : 318 MiB (23%)\nAlignment                        : Aligned on interleaves\nInterleave, duration             : 40 ms (1.00 video frame)\nInterleave, preload duration     : 512 ms\n\n\n\nWORKDONE:\n\nStraight forward rip really ....made a d2v file off the dvd,then made a \nscript that contained crop,resize,sharpen only.\nAudio stripped from dvd then remuxed to the encode.\nCheck sample for Q.\n\n\nPoster:\n\n &lt;a href=&quot;\nhttp://i.imgur.com/LYFlA.jpg&quot; rel=&quot;nofollow&quot; target=&quot;_NEW&quot;&gt;\nhttp://i.imgur.com/LYFlA.jpg&lt;/a&gt;\n\n\nScreenshots:\n\n &lt;a href=&quot;\nhttp://i.imgur.com/eRPDD.jpg&quot; rel=&quot;nofollow&quot; target=&quot;_NEW&quot;&gt;\nhttp://i.imgur.com/eRPDD.jpg&lt;/a&gt;\n\n\nENJOY!","torrent":{"xt":"urn:btih:c6bbac25fa5ccf874b42fcfbd775c78953585ca3","amp;dn":"TT+Closer+To+The+Edge+2011+DVDRiP+AC3+5.1+XViD+-+U.S.M+","amp;tr":["udp%3A%2F%2Ftracker.openbittorrent.com%3A80","udp%3A%2F%2Fopen.demonii.com%3A1337","udp%3A%2F%2Ftracker.coppersurfer.tk%3A6969","udp%3A%2F%2Fexodus.desync.com%3A6969"],"infoHash":"c6bbac25fa5ccf874b42fcfbd775c78953585ca3","infoHashBuffer":{"type":"Buffer","data":[198,187,172,37,250,92,207,135,75,66,252,251,215,117,199,137,83,88,92,163]},"announce":[],"urlList":[]}}